<svg width="1920" height="960" viewBox="0 0 1920 960" fill="none" xmlns="http://www.w3.org/2000/svg">
<rect width="1920" height="960" fill="url(#paint0_linear_3_2)"/>
<mask id="mask0_3_2" style="mask-type:alpha" maskUnits="userSpaceOnUse" x="488" y="633" width="222" height="222">
<circle cx="599" cy="744" r="111" fill="white" fill-opacity="0.5"/>
</mask>
<g mask="url(#mask0_3_2)">
<circle cx="491.744" cy="637.865" r="4.86517" fill="white" fill-opacity="0.5"/>
<circle cx="491.744" cy="668.029" r="4.86517" fill="white" fill-opacity="0.5"/>
<circle cx="491.744" cy="698.193" r="4.86517" fill="white" fill-opacity="0.5"/>
<circle cx="491.744" cy="728.357" r="4.86517" fill="white" fill-opacity="0.5"/>
<circle cx="491.744" cy="758.521" r="4.86517" fill="white" fill-opacity="0.5"/>
<circle cx="491.744" cy="788.685" r="4.86517" fill="white" fill-opacity="0.5"/>
<circle cx="491.744" cy="818.85" r="4.86517" fill="white" fill-opacity="0.5"/>
<circle cx="491.744" cy="849.014" r="4.86517" fill="white" fill-opacity="0.5"/>
<circle cx="518.989" cy="637.865" r="4.86517" fill="white" fill-opacity="0.5"/>
<circle cx="518.989" cy="668.029" r="4.86517" fill="white" fill-opacity="0.5"/>
<circle cx="518.989" cy="698.193" r="4.86517" fill="white" fill-opacity="0.5"/>
<circle cx="518.989" cy="728.357" r="4.86517" fill="white" fill-opacity="0.5"/>
<circle cx="518.989" cy="758.521" r="4.86517" fill="white" fill-opacity="0.5"/>
<circle cx="518.989" cy="788.685" r="4.86517" fill="white" fill-opacity="0.5"/>
<circle cx="518.989" cy="818.85" r="4.86517" fill="white" fill-opacity="0.5"/>
<circle cx="518.989" cy="849.014" r="4.86517" fill="white" fill-opacity="0.5"/>
<circle cx="546.234" cy="637.865" r="4.86517" fill="white" fill-opacity="0.5"/>
<circle cx="546.234" cy="668.029" r="4.86517" fill="white" fill-opacity="0.5"/>
<circle cx="546.234" cy="698.193" r="4.86517" fill="white" fill-opacity="0.5"/>
<circle cx="546.234" cy="728.357" r="4.86517" fill="white" fill-opacity="0.5"/>
<circle cx="546.234" cy="758.521" r="4.86517" fill="white" fill-opacity="0.5"/>
<circle cx="546.234" cy="788.685" r="4.86517" fill="white" fill-opacity="0.5"/>
<circle cx="546.234" cy="818.85" r="4.86517" fill="white" fill-opacity="0.5"/>
<circle cx="546.234" cy="849.014" r="4.86517" fill="white" fill-opacity="0.5"/>
<circle cx="573.479" cy="637.865" r="4.86517" fill="white" fill-opacity="0.5"/>
<circle cx="573.479" cy="668.029" r="4.86517" fill="white" fill-opacity="0.5"/>
<circle cx="573.479" cy="698.193" r="4.86517" fill="white" fill-opacity="0.5"/>
<circle cx="573.479" cy="728.357" r="4.86517" fill="white" fill-opacity="0.5"/>
<circle cx="573.479" cy="758.521" r="4.86517" fill="white" fill-opacity="0.5"/>
<circle cx="573.479" cy="788.685" r="4.86517" fill="white" fill-opacity="0.5"/>
<circle cx="573.479" cy="818.85" r="4.86517" fill="white" fill-opacity="0.5"/>
<circle cx="573.479" cy="849.014" r="4.86517" fill="white" fill-opacity="0.5"/>
<circle cx="600.724" cy="637.865" r="4.86517" fill="white" fill-opacity="0.5"/>
<circle cx="600.724" cy="668.029" r="4.86517" fill="white" fill-opacity="0.5"/>
<circle cx="600.724" cy="698.193" r="4.86517" fill="white" fill-opacity="0.5"/>
<circle cx="600.724" cy="728.357" r="4.86517" fill="white" fill-opacity="0.5"/>
<circle cx="600.724" cy="758.521" r="4.86517" fill="white" fill-opacity="0.5"/>
<circle cx="600.724" cy="788.685" r="4.86517" fill="white" fill-opacity="0.5"/>
<circle cx="600.724" cy="818.85" r="4.86517" fill="white" fill-opacity="0.5"/>
<circle cx="600.724" cy="849.014" r="4.86517" fill="white" fill-opacity="0.5"/>
<circle cx="627.969" cy="637.865" r="4.86517" fill="white" fill-opacity="0.5"/>
<circle cx="627.969" cy="668.029" r="4.86517" fill="white" fill-opacity="0.5"/>
<circle cx="627.969" cy="698.193" r="4.86517" fill="white" fill-opacity="0.5"/>
<circle cx="627.969" cy="728.357" r="4.86517" fill="white" fill-opacity="0.5"/>
<circle cx="627.969" cy="758.521" r="4.86517" fill="white" fill-opacity="0.5"/>
<circle cx="627.969" cy="788.685" r="4.86517" fill="white" fill-opacity="0.5"/>
<circle cx="627.969" cy="818.85" r="4.86517" fill="white" fill-opacity="0.5"/>
<circle cx="627.969" cy="849.014" r="4.86517" fill="white" fill-opacity="0.5"/>
<circle cx="655.214" cy="637.865" r="4.86517" fill="white" fill-opacity="0.5"/>
<circle cx="655.214" cy="668.029" r="4.86517" fill="white" fill-opacity="0.5"/>
<circle cx="655.214" cy="698.193" r="4.86517" fill="white" fill-opacity="0.5"/>
<circle cx="655.214" cy="728.357" r="4.86517" fill="white" fill-opacity="0.5"/>
<circle cx="655.214" cy="758.521" r="4.86517" fill="white" fill-opacity="0.5"/>
<circle cx="655.214" cy="788.685" r="4.86517" fill="white" fill-opacity="0.5"/>
<circle cx="655.214" cy="818.85" r="4.86517" fill="white" fill-opacity="0.5"/>
<circle cx="655.214" cy="849.014" r="4.86517" fill="white" fill-opacity="0.5"/>
<circle cx="682.459" cy="637.865" r="4.86517" fill="white" fill-opacity="0.5"/>
<circle cx="682.459" cy="668.029" r="4.86517" fill="white" fill-opacity="0.5"/>
<circle cx="682.459" cy="698.193" r="4.86517" fill="white" fill-opacity="0.5"/>
<circle cx="682.459" cy="728.357" r="4.86517" fill="white" fill-opacity="0.5"/>
<circle cx="682.459" cy="758.521" r="4.86517" fill="white" fill-opacity="0.5"/>
<circle cx="682.459" cy="788.685" r="4.86517" fill="white" fill-opacity="0.5"/>
<circle cx="682.459" cy="818.85" r="4.86517" fill="white" fill-opacity="0.5"/>
<circle cx="682.459" cy="849.014" r="4.86517" fill="white" fill-opacity="0.5"/>
<circle cx="709.704" cy="637.865" r="4.86517" fill="white" fill-opacity="0.5"/>
<circle cx="709.704" cy="668.029" r="4.86517" fill="white" fill-opacity="0.5"/>
<circle cx="709.704" cy="698.193" r="4.86517" fill="white" fill-opacity="0.5"/>
<circle cx="709.704" cy="728.357" r="4.86517" fill="white" fill-opacity="0.5"/>
<circle cx="709.704" cy="758.521" r="4.86517" fill="white" fill-opacity="0.5"/>
<circle cx="709.704" cy="788.685" r="4.86517" fill="white" fill-opacity="0.5"/>
<circle cx="709.704" cy="818.85" r="4.86517" fill="white" fill-opacity="0.5"/>
<circle cx="709.704" cy="849.014" r="4.86517" fill="white" fill-opacity="0.5"/>
</g>
<mask id="mask1_3_2" style="mask-type:alpha" maskUnits="userSpaceOnUse" x="1238" y="72" width="284" height="284">
<circle cx="1379.59" cy="213.587" r="141.587" fill="white" fill-opacity="0.5"/>
</mask>
<g mask="url(#mask1_3_2)">
<circle cx="1242.78" cy="78.2058" r="6.20583" fill="white" fill-opacity="0.5"/>
<circle cx="1242.78" cy="116.682" r="6.20583" fill="white" fill-opacity="0.5"/>
<circle cx="1242.78" cy="155.158" r="6.20583" fill="white" fill-opacity="0.5"/>
<circle cx="1242.78" cy="193.634" r="6.20583" fill="white" fill-opacity="0.5"/>
<circle cx="1242.78" cy="232.11" r="6.20583" fill="white" fill-opacity="0.5"/>
<circle cx="1242.78" cy="270.586" r="6.20583" fill="white" fill-opacity="0.5"/>
<circle cx="1242.78" cy="309.063" r="6.20583" fill="white" fill-opacity="0.5"/>
<circle cx="1242.78" cy="347.539" r="6.20583" fill="white" fill-opacity="0.5"/>
<circle cx="1277.53" cy="78.2058" r="6.20583" fill="white" fill-opacity="0.5"/>
<circle cx="1277.53" cy="116.682" r="6.20583" fill="white" fill-opacity="0.5"/>
<circle cx="1277.53" cy="155.158" r="6.20583" fill="white" fill-opacity="0.5"/>
<circle cx="1277.53" cy="193.634" r="6.20583" fill="white" fill-opacity="0.5"/>
<circle cx="1277.53" cy="232.11" r="6.20583" fill="white" fill-opacity="0.5"/>
<circle cx="1277.53" cy="270.586" r="6.20583" fill="white" fill-opacity="0.5"/>
<circle cx="1277.53" cy="309.063" r="6.20583" fill="white" fill-opacity="0.5"/>
<circle cx="1277.53" cy="347.539" r="6.20583" fill="white" fill-opacity="0.5"/>
<circle cx="1312.28" cy="78.2058" r="6.20583" fill="white" fill-opacity="0.5"/>
<circle cx="1312.28" cy="116.682" r="6.20583" fill="white" fill-opacity="0.5"/>
<circle cx="1312.28" cy="155.158" r="6.20583" fill="white" fill-opacity="0.5"/>
<circle cx="1312.28" cy="193.634" r="6.20583" fill="white" fill-opacity="0.5"/>
<circle cx="1312.28" cy="232.11" r="6.20583" fill="white" fill-opacity="0.5"/>
<circle cx="1312.28" cy="270.586" r="6.20583" fill="white" fill-opacity="0.5"/>
<circle cx="1312.28" cy="309.063" r="6.20583" fill="white" fill-opacity="0.5"/>
<circle cx="1312.28" cy="347.539" r="6.20583" fill="white" fill-opacity="0.5"/>
<circle cx="1347.03" cy="78.2058" r="6.20583" fill="white" fill-opacity="0.5"/>
<circle cx="1347.03" cy="116.682" r="6.20583" fill="white" fill-opacity="0.5"/>
<circle cx="1347.03" cy="155.158" r="6.20583" fill="white" fill-opacity="0.5"/>
<circle cx="1347.03" cy="193.634" r="6.20583" fill="white" fill-opacity="0.5"/>
<circle cx="1347.03" cy="232.11" r="6.20583" fill="white" fill-opacity="0.5"/>
<circle cx="1347.03" cy="270.586" r="6.20583" fill="white" fill-opacity="0.5"/>
<circle cx="1347.03" cy="309.063" r="6.20583" fill="white" fill-opacity="0.5"/>
<circle cx="1347.03" cy="347.539" r="6.20583" fill="white" fill-opacity="0.5"/>
<circle cx="1381.79" cy="78.2058" r="6.20583" fill="white" fill-opacity="0.5"/>
<circle cx="1381.79" cy="116.682" r="6.20583" fill="white" fill-opacity="0.5"/>
<circle cx="1381.79" cy="155.158" r="6.20583" fill="white" fill-opacity="0.5"/>
<circle cx="1381.79" cy="193.634" r="6.20583" fill="white" fill-opacity="0.5"/>
<circle cx="1381.79" cy="232.11" r="6.20583" fill="white" fill-opacity="0.5"/>
<circle cx="1381.79" cy="270.586" r="6.20583" fill="white" fill-opacity="0.5"/>
<circle cx="1381.79" cy="309.063" r="6.20583" fill="white" fill-opacity="0.5"/>
<circle cx="1381.79" cy="347.539" r="6.20583" fill="white" fill-opacity="0.5"/>
<circle cx="1416.54" cy="78.2058" r="6.20583" fill="white" fill-opacity="0.5"/>
<circle cx="1416.54" cy="116.682" r="6.20583" fill="white" fill-opacity="0.5"/>
<circle cx="1416.54" cy="155.158" r="6.20583" fill="white" fill-opacity="0.5"/>
<circle cx="1416.54" cy="193.634" r="6.20583" fill="white" fill-opacity="0.5"/>
<circle cx="1416.54" cy="232.11" r="6.20583" fill="white" fill-opacity="0.5"/>
<circle cx="1416.54" cy="270.586" r="6.20583" fill="white" fill-opacity="0.5"/>
<circle cx="1416.54" cy="309.063" r="6.20583" fill="white" fill-opacity="0.5"/>
<circle cx="1416.54" cy="347.539" r="6.20583" fill="white" fill-opacity="0.5"/>
<circle cx="1451.29" cy="78.2058" r="6.20583" fill="white" fill-opacity="0.5"/>
<circle cx="1451.29" cy="116.682" r="6.20583" fill="white" fill-opacity="0.5"/>
<circle cx="1451.29" cy="155.158" r="6.20583" fill="white" fill-opacity="0.5"/>
<circle cx="1451.29" cy="193.634" r="6.20583" fill="white" fill-opacity="0.5"/>
<circle cx="1451.29" cy="232.11" r="6.20583" fill="white" fill-opacity="0.5"/>
<circle cx="1451.29" cy="270.586" r="6.20583" fill="white" fill-opacity="0.5"/>
<circle cx="1451.29" cy="309.063" r="6.20583" fill="white" fill-opacity="0.5"/>
<circle cx="1451.29" cy="347.539" r="6.20583" fill="white" fill-opacity="0.5"/>
<circle cx="1486.04" cy="78.2058" r="6.20583" fill="white" fill-opacity="0.5"/>
<circle cx="1486.04" cy="116.682" r="6.20583" fill="white" fill-opacity="0.5"/>
<circle cx="1486.04" cy="155.158" r="6.20583" fill="white" fill-opacity="0.5"/>
<circle cx="1486.04" cy="193.634" r="6.20583" fill="white" fill-opacity="0.5"/>
<circle cx="1486.04" cy="232.11" r="6.20583" fill="white" fill-opacity="0.5"/>
<circle cx="1486.04" cy="270.586" r="6.20583" fill="white" fill-opacity="0.5"/>
<circle cx="1486.04" cy="309.063" r="6.20583" fill="white" fill-opacity="0.5"/>
<circle cx="1486.04" cy="347.539" r="6.20583" fill="white" fill-opacity="0.5"/>
<circle cx="1520.8" cy="78.2058" r="6.20583" fill="white" fill-opacity="0.5"/>
<circle cx="1520.8" cy="116.682" r="6.20583" fill="white" fill-opacity="0.5"/>
<circle cx="1520.8" cy="155.158" r="6.20583" fill="white" fill-opacity="0.5"/>
<circle cx="1520.8" cy="193.634" r="6.20583" fill="white" fill-opacity="0.5"/>
<circle cx="1520.8" cy="232.11" r="6.20583" fill="white" fill-opacity="0.5"/>
<circle cx="1520.8" cy="270.586" r="6.20583" fill="white" fill-opacity="0.5"/>
<circle cx="1520.8" cy="309.063" r="6.20583" fill="white" fill-opacity="0.5"/>
<circle cx="1520.8" cy="347.539" r="6.20583" fill="white" fill-opacity="0.5"/>
</g>
<defs>
<linearGradient id="paint0_linear_3_2" x1="0" y1="0" x2="1423.94" y2="1447.86" gradientUnits="userSpaceOnUse">
<stop stop-color="#00376A"/>
<stop offset="1" stop-color="#0079E9"/>
</linearGradient>
</defs>
</svg>
